<?xml version="1.0" encoding="utf-8"?>
<!-- Generator: Adobe Illustrator 16.0.0, SVG Export Plug-In . SVG Version: 6.00 Build 0)  -->
<!DOCTYPE svg PUBLIC "-//W3C//DTD SVG 1.1//EN" "http://www.w3.org/Graphics/SVG/1.1/DTD/svg11.dtd">
<svg version="1.1" id="Capa_1" xmlns="http://www.w3.org/2000/svg" xmlns:xlink="http://www.w3.org/1999/xlink" x="0px" y="0px"
	 width="16px" height="16px" viewBox="0 0 16 16" style="enable-background:new 0 0 16 16;" xml:space="preserve">
<style type="text/css">
<![CDATA[
	.st0{fill:#604848;}
]]>
</style>
<g>
	<path class="st0" d="M8,0.333C3.766,0.333,0.333,3.766,0.333,8S3.766,15.667,8,15.667S15.667,12.234,15.667,8S12.234,0.333,8,0.333
		z M9.271,2.485c0.028-0.001,0.06-0.002,0.09,0c0.416-0.014,0.777,0.299,0.834,0.704c0.186,0.778-0.641,1.557-1.398,1.246
		C7.89,4.015,8.346,2.53,9.271,2.485z M8.896,5.868c0.588-0.038,0.69,0.647,0.508,1.341c-0.358,1.596-0.916,3.141-1.218,4.749
		c0.146,0.636,0.947-0.093,1.289-0.326c0.291-0.23,0.342,0.06,0.441,0.303c-0.727,0.509-1.458,1.027-2.267,1.438
		c-0.76,0.461-1.383-0.257-1.193-1.055c0.313-1.489,0.727-2.957,1.064-4.442C7.626,7.073,6.57,7.89,6.256,8.077
		C6.002,8.395,5.882,8.163,5.777,7.875c0.842-0.615,1.7-1.37,2.63-1.859C8.597,5.922,8.76,5.876,8.896,5.868z"/>
</g>
</svg>
